<svg width="30" height="37" viewBox="0 0 30 37" fill="none" xmlns="http://www.w3.org/2000/svg">
<path d="M7.57427 16.0909H19.26C19.532 16.0909 19.8013 16.1441 20.0526 16.2474C20.3039 16.3507 20.5322 16.5021 20.7245 16.6929C20.9169 16.8838 21.0694 17.1104 21.1735 17.3598C21.2776 17.6092 21.3312 17.8765 21.3312 18.1464C21.3312 18.4164 21.2776 18.6837 21.1735 18.9331C21.0694 19.1825 20.9169 19.4091 20.7245 19.5999C20.5322 19.7908 20.3039 19.9422 20.0526 20.0455C19.8013 20.1488 19.532 20.202 19.26 20.202H7.57427L9.89815 22.5083C10.2865 22.894 10.5046 23.4171 10.5044 23.9623C10.5042 24.5076 10.2858 25.0305 9.89712 25.4159C9.50848 25.8014 8.98147 26.0178 8.43205 26.0176C7.88262 26.0174 7.35577 25.8006 6.9674 25.4149L1.11005 19.6018C0.916731 19.4113 0.763303 19.1847 0.658603 18.9351C0.553903 18.6855 0.5 18.4178 0.5 18.1475C0.5 17.8771 0.553903 17.6094 0.658603 17.3598C0.763303 17.1102 0.916731 16.8837 1.11005 16.6932L6.96533 10.8801C7.3537 10.4944 7.88055 10.2776 8.42997 10.2774C8.9794 10.2772 9.50641 10.4936 9.89505 10.879C10.2837 11.2645 10.5021 11.7873 10.5023 12.3326C10.5025 12.8779 10.2844 13.4009 9.89608 13.7866L7.57427 16.0909ZM27.4288 0C27.9781 0 28.5049 0.216567 28.8934 0.602058C29.2818 0.98755 29.5 1.51039 29.5 2.05556V34.9444C29.5 35.4896 29.2818 36.0125 28.8934 36.3979C28.5049 36.7834 27.9781 37 27.4288 37C26.8795 37 26.3527 36.7834 25.9642 36.3979C25.5758 36.0125 25.3576 35.4896 25.3576 34.9444V2.05556C25.3576 1.51039 25.5758 0.98755 25.9642 0.602058C26.3527 0.216567 26.8795 0 27.4288 0Z" fill="#8A93A6"/>
</svg>
