<svg width="42" height="33" viewBox="0 0 42 33" fill="none" xmlns="http://www.w3.org/2000/svg">
<path d="M20.4432 8.5603L7.00055 19.7473V31.8213C7.00055 32.1339 7.12346 32.4337 7.34224 32.6548C7.56101 32.8758 7.85773 33 8.16713 33L16.3375 32.9786C16.6459 32.9771 16.9412 32.8522 17.1587 32.6313C17.3762 32.4104 17.4983 32.1115 17.4983 31.7999V24.7488C17.4983 24.4362 17.6212 24.1364 17.84 23.9153C18.0587 23.6943 18.3555 23.5701 18.6649 23.5701H23.3312C23.6406 23.5701 23.9373 23.6943 24.1561 23.9153C24.3748 24.1364 24.4977 24.4362 24.4977 24.7488V31.7947C24.4973 31.9498 24.5271 32.1035 24.5855 32.247C24.6439 32.3904 24.7298 32.5208 24.8381 32.6306C24.9465 32.7405 25.0753 32.8276 25.217 32.8871C25.3588 32.9466 25.5108 32.9772 25.6643 32.9772L33.8318 33C34.1412 33 34.4379 32.8758 34.6567 32.6548C34.8755 32.4337 34.9984 32.1339 34.9984 31.8213V19.7392L21.5587 8.5603C21.4007 8.43161 21.2039 8.36144 21.0009 8.36144C20.798 8.36144 20.6012 8.43161 20.4432 8.5603ZM41.677 16.1639L35.5817 11.0872L29.7488 6.23228L23.2211 0.805659C22.5946 0.284788 21.8086 0 20.9973 0C20.186 0 19.3999 0.284788 18.7735 0.805659L0.317527 16.1639C0.228931 16.2379 0.155631 16.3288 0.101817 16.4314C0.0480031 16.534 0.0147286 16.6464 0.00389502 16.762C-0.00693855 16.8776 0.00488114 16.9943 0.0386787 17.1053C0.0724763 17.2163 0.127589 17.3195 0.200869 17.409L2.0601 19.6928C2.13318 19.7825 2.22307 19.8569 2.32462 19.9115C2.42617 19.9662 2.53739 20 2.65191 20.0112C2.76643 20.0224 2.88201 20.0106 2.99202 19.9765C3.10203 19.9425 3.20432 19.8869 3.29303 19.8128L20.4432 5.53977C20.6012 5.41109 20.798 5.34091 21.0009 5.34091C21.2039 5.34091 21.4007 5.41109 21.5587 5.53977L38.7096 19.8128C38.7981 19.8869 38.9002 19.9426 39.0101 19.9767C39.12 20.0109 39.2354 20.0228 39.3498 20.0119C39.4643 20.0009 39.5754 19.9673 39.677 19.9129C39.7786 19.8586 39.8685 19.7845 39.9418 19.695L41.801 17.4112C41.8742 17.3212 41.9291 17.2174 41.9625 17.106C41.9959 16.9945 42.0071 16.8774 41.9956 16.7615C41.9841 16.6456 41.95 16.5331 41.8954 16.4306C41.8407 16.328 41.7665 16.2374 41.677 16.1639Z" fill="#8A93A6"/>
</svg>
