<svg width="42" height="30" viewBox="0 0 42 30" fill="none" xmlns="http://www.w3.org/2000/svg">
<path d="M12.6 15C16.6622 15 19.95 11.6451 19.95 7.5C19.95 3.35491 16.6622 0 12.6 0C8.53781 0 5.25 3.35491 5.25 7.5C5.25 11.6451 8.53781 15 12.6 15ZM17.64 17.1429H17.0953C15.7303 17.8125 14.2144 18.2143 12.6 18.2143C10.9856 18.2143 9.47625 17.8125 8.10469 17.1429H7.56C3.38625 17.1429 0 20.5982 0 24.8571V26.7857C0 28.5603 1.41094 30 3.15 30H22.05C23.7891 30 25.2 28.5603 25.2 26.7857V24.8571C25.2 20.5982 21.8137 17.1429 17.64 17.1429ZM31.5 15C34.9781 15 37.8 12.1205 37.8 8.57143C37.8 5.02232 34.9781 2.14286 31.5 2.14286C28.0219 2.14286 25.2 5.02232 25.2 8.57143C25.2 12.1205 28.0219 15 31.5 15ZM34.65 17.1429H34.4006C33.4884 17.4643 32.5237 17.6786 31.5 17.6786C30.4762 17.6786 29.5116 17.4643 28.5994 17.1429H28.35C27.0112 17.1429 25.7775 17.5379 24.6947 18.1741C26.2959 19.9353 27.3 22.2723 27.3 24.8571V27.4286C27.3 27.5759 27.2672 27.7165 27.2606 27.8571H38.85C40.5891 27.8571 42 26.4174 42 24.6429C42 20.4978 38.7122 17.1429 34.65 17.1429Z" fill="#8A93A6"/>
</svg>
